<svg width="499" height="75" viewBox="0 0 499 75" fill="none" xmlns="http://www.w3.org/2000/svg">
<path d="M161.236 20.8202L161.286 33.8302C155.956 31.8902 151.636 31.3602 146.916 34.1102C143.416 36.1602 140.466 40.9902 140.206 45.7102C139.746 54.0802 145.276 60.3202 152.836 61.0602C160.396 61.8002 168.036 56.1302 168.076 47.4302L168.286 0.000244141L182.396 0.180244L182.206 47.9402C182.146 63.8002 167.496 74.9502 152.316 73.9702C135.156 72.8602 123.946 58.7402 126.316 42.3502C128.616 26.4202 145.156 16.1002 161.236 20.8202Z" fill="white"/>
<path d="M304.156 72.8103L290.616 73.0003L289.676 67.6903C285.116 71.7903 280.896 73.8103 275.366 74.0003C264.026 74.4103 254.486 68.0403 250.446 57.4903C246.026 45.9503 248.916 32.1003 258.946 24.8203C268.696 17.7403 281.286 17.7503 289.866 25.7003L290.716 20.7103L304.086 20.8703L304.146 72.8103H304.156ZM289.676 46.2803C289.596 37.4703 282.846 31.5303 275.216 32.2703C267.586 33.0103 262.726 39.9603 263.236 47.7903C263.746 55.6203 269.436 61.5703 276.836 61.4803C284.686 61.3803 289.756 54.9603 289.676 46.2803Z" fill="white"/>
<path d="M231.826 56.0103L239.816 65.1203C228.106 77.5003 207.256 77.1303 195.966 64.3503C188.246 55.6003 187.596 42.0403 193.586 32.2803C201.766 18.9603 219.816 15.7303 232.466 24.6003C241.036 30.6103 244.336 41.1603 242.676 51.4803L204.646 51.5303C205.236 57.0903 210.426 60.5203 215.776 61.2703C221.806 62.1203 226.726 61.1303 231.826 56.0003V56.0103ZM229.176 42.0303C228.206 35.2203 222.816 31.0303 216.756 31.1103C210.696 31.1903 204.956 35.0603 204.216 41.9603L229.166 42.0303H229.176Z" fill="white"/>
<path d="M455.536 46.8703C455.536 62.2303 443.076 74.6903 427.716 74.6903C412.356 74.6903 399.896 62.2303 399.896 46.8703C399.896 31.5103 412.356 19.0503 427.716 19.0503C443.076 19.0503 455.536 31.5103 455.536 46.8703ZM440.836 46.2403C440.626 37.8803 434.466 31.7103 427.136 32.1303C419.446 32.5703 414.376 39.0103 414.496 46.7903C414.626 55.0303 420.146 61.4403 427.866 61.2503C435.586 61.0603 441.056 55.0803 440.836 46.2403Z" fill="white"/>
<path d="M394.116 46.8703C394.116 62.2103 381.686 74.6403 366.346 74.6403C351.006 74.6403 338.576 62.2103 338.576 46.8703C338.576 31.5303 351.006 19.1003 366.346 19.1003C381.686 19.1003 394.116 31.5303 394.116 46.8703ZM379.466 47.2803C379.886 38.6703 373.496 31.9403 366.056 32.2003C358.256 32.4703 352.936 38.9703 353.126 46.8303C353.316 54.6903 358.366 60.9303 365.796 61.2103C373.196 61.4903 379.046 56.0403 379.476 47.2803H379.466Z" fill="white"/>
<path d="M494.606 59.5702L498.536 70.2302C494.756 72.9902 490.146 74.0602 485.396 74.0502C474.186 74.0502 466.646 65.8302 466.716 55.0602L466.846 34.0202L459.026 32.9802V21.4102L466.726 21.2002L466.876 8.11019L481.386 7.94019L481.496 21.1002L495.096 21.3202L495.026 33.0802L481.546 33.2902L481.386 53.9402C481.366 56.2402 482.996 59.8302 484.986 60.7302C487.596 61.9102 489.996 61.2702 494.616 59.5702H494.606Z" fill="white"/>
<path d="M330.186 0.000244141H315.416V72.9702H330.186V0.000244141Z" fill="white"/>
<path d="M61.7023 17.0137C63.0702 14.8913 65.9004 14.2796 68.0229 15.6474C70.1452 17.0153 70.7569 19.8455 69.3891 21.968L42.8712 63.1165C41.5033 65.2389 38.6731 65.8506 36.5506 64.4828C34.4283 63.1149 33.8166 60.2847 35.1844 58.1623L61.7023 17.0137Z" fill="white"/>
<path d="M34.9129 14.0046C41.983 14.0046 47.7144 20.5545 47.7146 28.6345C47.7146 36.7148 41.9831 43.2654 34.9129 43.2654C27.8427 43.2654 22.1111 36.7148 22.1111 28.6345C22.1114 20.5545 27.8428 14.0046 34.9129 14.0046ZM34.9129 23.1482C34.331 23.1482 33.5421 23.3968 32.742 24.3113C31.9262 25.2437 31.2558 26.7448 31.2557 28.6345C31.2557 30.5245 31.9262 32.0262 32.742 32.9587C33.5421 33.8732 34.331 34.1218 34.9129 34.1218C35.4947 34.1218 36.2837 33.8732 37.0838 32.9587C37.8996 32.0262 38.5701 30.5245 38.5701 28.6345C38.57 26.7448 37.8995 25.2437 37.0838 24.3113C36.2837 23.3968 35.4947 23.1482 34.9129 23.1482Z" fill="white"/>
<path d="M63.2622 3.0564C68.0347 1.20899 78.2038 -2.66839 87.5249 2.84058C96.8753 8.36751 103.23 21.9586 104.61 48.6609C104.849 53.291 104.573 59.0958 103.151 63.9626C101.847 68.4251 98.792 74.4426 92.0239 74.7371C86.2376 74.9884 81.9873 71.4595 79.4497 68.5759C78.1391 67.0866 77.0719 65.5249 76.2788 64.239C74.1651 66.0001 71.5625 67.0406 68.7466 67.0408C61.6764 67.0408 55.9449 60.4901 55.9448 52.4099C55.9448 44.3297 61.6764 37.7791 68.7466 37.7791C75.8166 37.7794 81.5484 44.3298 81.5484 52.4099C81.5483 53.4812 81.4457 54.5252 81.2544 55.531C81.875 55.9313 82.4071 56.4885 82.7857 57.1824C83.3239 58.1691 84.4975 60.4706 86.314 62.5349C88.208 64.6871 90.0013 65.671 91.6275 65.6003C91.9505 65.586 93.2289 65.3162 94.3735 61.3982C95.4007 57.882 95.6884 53.2041 95.478 49.1326C94.1182 22.8186 87.9043 13.686 82.8726 10.7117C77.8112 7.72034 71.7828 9.56359 66.564 11.5837C57.9345 14.9242 53.5816 14.7928 52.3443 14.7927C51.1073 14.7928 46.7535 14.9243 38.1235 11.5837C32.9048 9.56361 26.8763 7.72054 21.815 10.7117C16.7832 13.6859 10.5683 22.8183 9.20851 49.1326C8.99817 53.2041 9.28592 57.8821 10.313 61.3982C11.4581 65.3179 12.7377 65.5862 13.0601 65.6003C14.6862 65.6709 16.4796 64.687 18.3735 62.5349C20.1898 60.4707 21.3627 58.1691 21.9009 57.1824C23.1101 54.9659 25.8874 54.1492 28.104 55.3582C30.3205 56.5673 31.1371 59.3447 29.9282 61.5613C29.4991 62.348 27.8519 65.6052 25.2378 68.5759C22.7002 71.4595 18.4492 74.9886 12.6626 74.7371C5.89458 74.4426 2.83943 68.4251 1.53566 63.9626C0.11402 59.0958 -0.162549 53.291 0.0766747 48.6609C1.45651 21.9582 7.812 8.36738 17.1626 2.84058C26.4836 -2.66824 36.6518 1.20897 41.4243 3.0564C48.7755 5.90193 51.9657 5.64842 52.3433 5.64819C52.7219 5.64853 55.9127 5.90127 63.2622 3.0564ZM68.7466 46.9236C68.1648 46.9236 67.3757 47.1715 66.5757 48.0857C65.7598 49.0182 65.0884 50.5199 65.0884 52.4099C65.0884 54.2998 65.7599 55.8017 66.5757 56.7341C67.3757 57.6481 68.1649 57.8962 68.7466 57.8962C69.3284 57.8961 70.1176 57.6482 70.9175 56.7341C71.7333 55.8017 72.4038 54.2998 72.4038 52.4099C72.4038 50.5201 71.7333 49.0182 70.9175 48.0857C70.1176 47.1716 69.3284 46.9237 68.7466 46.9236Z" fill="white"/>
</svg>
