<svg width="499" height="75" viewBox="0 0 499 75" fill="none" xmlns="http://www.w3.org/2000/svg">
<path d="M161.236 20.8207L161.286 33.8307C155.956 31.8907 151.636 31.3607 146.916 34.1107C143.416 36.1607 140.466 40.9907 140.206 45.7107C139.746 54.0807 145.276 60.3207 152.836 61.0607C160.396 61.8007 168.036 56.1307 168.076 47.4307L168.286 0.000732422L182.396 0.180732L182.206 47.9407C182.146 63.8007 167.496 74.9507 152.316 73.9707C135.156 72.8607 123.946 58.7407 126.316 42.3507C128.616 26.4207 145.156 16.1007 161.236 20.8207Z" fill="black"/>
<path d="M304.156 72.8108L290.616 73.0008L289.676 67.6908C285.116 71.7908 280.896 73.8108 275.366 74.0008C264.026 74.4108 254.486 68.0408 250.446 57.4908C246.026 45.9508 248.916 32.1008 258.946 24.8208C268.696 17.7408 281.286 17.7508 289.866 25.7008L290.716 20.7108L304.086 20.8708L304.146 72.8108H304.156ZM289.676 46.2808C289.596 37.4708 282.846 31.5308 275.216 32.2708C267.586 33.0108 262.726 39.9608 263.236 47.7908C263.746 55.6208 269.436 61.5708 276.836 61.4808C284.686 61.3808 289.756 54.9608 289.676 46.2808Z" fill="black"/>
<path d="M231.826 56.0108L239.816 65.1208C228.106 77.5008 207.256 77.1308 195.966 64.3508C188.246 55.6008 187.596 42.0408 193.586 32.2808C201.766 18.9608 219.816 15.7308 232.466 24.6008C241.036 30.6108 244.336 41.1608 242.676 51.4808L204.646 51.5308C205.236 57.0908 210.426 60.5208 215.776 61.2708C221.806 62.1208 226.726 61.1308 231.826 56.0008V56.0108ZM229.176 42.0308C228.206 35.2208 222.816 31.0308 216.756 31.1108C210.696 31.1908 204.956 35.0608 204.216 41.9608L229.166 42.0308H229.176Z" fill="black"/>
<path d="M455.536 46.8708C455.536 62.2308 443.076 74.6908 427.716 74.6908C412.356 74.6908 399.896 62.2308 399.896 46.8708C399.896 31.5108 412.356 19.0508 427.716 19.0508C443.076 19.0508 455.536 31.5108 455.536 46.8708ZM440.836 46.2408C440.626 37.8808 434.466 31.7108 427.136 32.1308C419.446 32.5708 414.376 39.0108 414.496 46.7908C414.626 55.0308 420.146 61.4408 427.866 61.2508C435.586 61.0608 441.056 55.0808 440.836 46.2408Z" fill="black"/>
<path d="M394.116 46.8708C394.116 62.2108 381.686 74.6408 366.346 74.6408C351.006 74.6408 338.576 62.2108 338.576 46.8708C338.576 31.5308 351.006 19.1008 366.346 19.1008C381.686 19.1008 394.116 31.5308 394.116 46.8708ZM379.466 47.2808C379.886 38.6708 373.496 31.9408 366.056 32.2008C358.256 32.4708 352.936 38.9708 353.126 46.8308C353.316 54.6908 358.366 60.9308 365.796 61.2108C373.196 61.4908 379.046 56.0408 379.476 47.2808H379.466Z" fill="black"/>
<path d="M494.606 59.5707L498.536 70.2307C494.756 72.9907 490.146 74.0607 485.396 74.0507C474.186 74.0507 466.646 65.8307 466.716 55.0607L466.846 34.0207L459.026 32.9807V21.4107L466.726 21.2007L466.876 8.11067L481.386 7.94067L481.496 21.1007L495.096 21.3207L495.026 33.0807L481.546 33.2907L481.386 53.9407C481.366 56.2407 482.996 59.8307 484.986 60.7307C487.596 61.9107 489.996 61.2707 494.616 59.5707H494.606Z" fill="black"/>
<path d="M330.186 0.000732422H315.416V72.9707H330.186V0.000732422Z" fill="black"/>
<path d="M61.7023 17.0142C63.0702 14.8918 65.9004 14.2801 68.0228 15.6479C70.1452 17.0158 70.7569 19.846 69.3891 21.9684L42.8711 63.117C41.5032 65.2394 38.673 65.8511 36.5506 64.4833C34.4282 63.1154 33.8165 60.2852 35.1843 58.1628L61.7023 17.0142Z" fill="black"/>
<path d="M34.9128 14.0051C41.9829 14.0051 47.7144 20.555 47.7146 28.635C47.7146 36.7153 41.9831 43.2659 34.9128 43.2659C27.8426 43.2659 22.1111 36.7153 22.1111 28.635C22.1113 20.555 27.8428 14.0051 34.9128 14.0051ZM34.9128 23.1487C34.331 23.1487 33.5421 23.3973 32.7419 24.3118C31.9262 25.2442 31.2557 26.7453 31.2556 28.635C31.2556 30.525 31.9261 32.0267 32.7419 32.9592C33.5421 33.8737 34.331 34.1223 34.9128 34.1223C35.4947 34.1223 36.2836 33.8737 37.0837 32.9592C37.8996 32.0267 38.5701 30.525 38.5701 28.635C38.57 26.7453 37.8995 25.2442 37.0837 24.3118C36.2836 23.3973 35.4947 23.1487 34.9128 23.1487Z" fill="black"/>
<path d="M63.2622 3.05705C68.0347 1.20965 78.2038 -2.66871 87.5249 2.84026C96.8755 8.36707 103.23 21.9589 104.61 48.6615C104.849 53.2917 104.573 59.0965 103.151 63.9633C101.847 68.4258 98.792 74.4433 92.0239 74.7377C86.2376 74.9891 81.9873 71.4601 79.4497 68.5766C78.1392 67.0873 77.0718 65.5257 76.2788 64.2397C74.1652 66.0007 71.5625 67.0413 68.7466 67.0414C61.6765 67.0414 55.945 60.4906 55.9448 52.4106C55.9448 44.3303 61.6764 37.7797 68.7466 37.7797C75.8166 37.7801 81.5484 44.3305 81.5484 52.4106C81.5483 53.4818 81.4457 54.5259 81.2544 55.5317C81.875 55.932 82.4071 56.4891 82.7857 57.183C83.3239 58.1698 84.4976 60.4713 86.314 62.5356C88.2077 64.6875 90.0005 65.6715 91.6265 65.601C91.9488 65.5869 93.2283 65.3187 94.3735 61.3989C95.4007 57.8827 95.6884 53.2047 95.478 49.1332C94.1183 22.8195 87.9043 13.6867 82.8726 10.7123C77.8113 7.72106 71.7827 9.56331 66.564 11.5834C57.9347 14.9238 53.5817 14.7934 52.3443 14.7934C51.1073 14.7934 46.7536 14.924 38.1235 11.5834C32.9048 9.56329 26.8763 7.72117 21.815 10.7123C16.7832 13.6865 10.5683 22.819 9.20851 49.1332C8.99818 53.2047 9.2859 57.8828 10.313 61.3989C11.4581 65.3184 12.7376 65.5869 13.0601 65.601C14.6861 65.6716 16.4788 64.6875 18.3726 62.5356C20.1889 60.4714 21.3626 58.1699 21.9009 57.183C23.1101 54.9665 25.8874 54.1499 28.104 55.3588C30.3203 56.5679 31.1368 59.3444 29.9282 61.561C29.4994 62.3472 27.8523 65.6055 25.2378 68.5766C22.7002 71.4602 18.4491 74.9892 12.6626 74.7377C5.89459 74.4432 2.83942 68.4257 1.53566 63.9633C0.113989 59.0965 -0.162538 53.2917 0.0766723 48.6615C1.4565 21.9589 7.812 8.36707 17.1626 2.84026C26.4835 -2.66826 36.6519 1.20967 41.4243 3.05705C48.7753 5.90255 51.9656 5.64909 52.3433 5.64885C52.7222 5.64921 55.9132 5.90176 63.2622 3.05705ZM68.7466 46.9242C68.1648 46.9242 67.3757 47.1722 66.5757 48.0864C65.7599 49.0189 65.0884 50.5206 65.0884 52.4106C65.0885 54.3004 65.7599 55.8023 66.5757 56.7348C67.3756 57.6487 68.1649 57.8969 68.7466 57.8969C69.3284 57.8967 70.1177 57.6488 70.9175 56.7348C71.7333 55.8023 72.4037 54.3004 72.4038 52.4106C72.4038 50.5208 71.7332 49.0189 70.9175 48.0864C70.1176 47.1722 69.3284 46.9244 68.7466 46.9242Z" fill="black"/>
</svg>
