<svg width="373" height="203" viewBox="0 0 373 203" fill="none" xmlns="http://www.w3.org/2000/svg">
<path d="M35.2355 148.203L35.2855 161.213C29.9555 159.273 25.6355 158.743 20.9155 161.493C17.4155 163.543 14.4655 168.373 14.2055 173.093C13.7455 181.463 19.2755 187.703 26.8355 188.443C34.3955 189.183 42.0355 183.513 42.0755 174.813L42.2855 127.383L56.3955 127.563L56.2055 175.323C56.1455 191.183 41.4955 202.333 26.3155 201.353C9.15548 200.243 -2.05452 186.123 0.315477 169.733C2.61548 153.803 19.1555 143.483 35.2355 148.203Z" fill="white"/>
<path d="M178.155 200.193L164.615 200.383L163.675 195.073C159.115 199.173 154.895 201.193 149.365 201.383C138.025 201.793 128.485 195.423 124.445 184.873C120.025 173.333 122.915 159.483 132.945 152.203C142.695 145.123 155.285 145.133 163.865 153.083L164.715 148.093L178.085 148.253L178.145 200.193H178.155ZM163.675 173.663C163.595 164.853 156.845 158.913 149.215 159.653C141.585 160.393 136.725 167.343 137.235 175.173C137.745 183.003 143.435 188.953 150.835 188.863C158.685 188.763 163.755 182.343 163.675 173.663Z" fill="white"/>
<path d="M105.825 183.393L113.815 192.503C102.105 204.883 81.2555 204.513 69.9655 191.733C62.2455 182.983 61.5955 169.423 67.5855 159.663C75.7655 146.343 93.8155 143.113 106.465 151.983C115.035 157.993 118.335 168.543 116.675 178.863L78.6455 178.913C79.2355 184.473 84.4255 187.903 89.7755 188.653C95.8055 189.503 100.725 188.513 105.825 183.383V183.393ZM103.175 169.413C102.205 162.603 96.8155 158.413 90.7555 158.493C84.6955 158.573 78.9555 162.443 78.2155 169.343L103.165 169.413H103.175Z" fill="white"/>
<path d="M329.536 174.253C329.536 189.613 317.076 202.073 301.716 202.073C286.356 202.073 273.896 189.613 273.896 174.253C273.896 158.893 286.356 146.433 301.716 146.433C317.076 146.433 329.536 158.893 329.536 174.253ZM314.836 173.623C314.626 165.263 308.466 159.093 301.136 159.513C293.446 159.953 288.376 166.393 288.496 174.173C288.626 182.413 294.146 188.823 301.866 188.633C309.586 188.443 315.056 182.463 314.836 173.623Z" fill="white"/>
<path d="M268.115 174.253C268.115 189.593 255.685 202.023 240.345 202.023C225.005 202.023 212.575 189.593 212.575 174.253C212.575 158.913 225.005 146.483 240.345 146.483C255.685 146.483 268.115 158.913 268.115 174.253ZM253.465 174.663C253.885 166.053 247.495 159.323 240.055 159.583C232.255 159.853 226.935 166.353 227.125 174.213C227.315 182.073 232.365 188.313 239.795 188.593C247.195 188.873 253.045 183.423 253.475 174.663H253.465Z" fill="white"/>
<path d="M368.605 186.953L372.536 197.613C368.756 200.373 364.146 201.443 359.396 201.433C348.186 201.433 340.646 193.213 340.716 182.443L340.846 161.403L333.026 160.363V148.793L340.726 148.583L340.876 135.493L355.386 135.323L355.496 148.483L369.096 148.703L369.026 160.463L355.546 160.673L355.386 181.323C355.366 183.623 356.996 187.213 358.986 188.113C361.596 189.293 363.996 188.653 368.616 186.953H368.605Z" fill="white"/>
<path d="M204.186 127.383H189.416V200.353H204.186V127.383Z" fill="white"/>
<path d="M201.548 28.0018C203.799 24.5089 208.457 23.5022 211.95 25.7533C215.443 28.0045 216.45 32.6624 214.199 36.1555L170.556 103.877C168.305 107.37 163.647 108.377 160.154 106.125C156.661 103.874 155.654 99.2163 157.906 95.7233L201.548 28.0018Z" fill="white"/>
<path d="M157.459 23.0493C169.095 23.0496 178.527 33.8295 178.527 47.1274C178.527 60.4256 169.095 71.2062 157.459 71.2065C145.823 71.2065 136.39 60.4258 136.39 47.1274C136.39 33.8293 145.823 23.0493 157.459 23.0493ZM157.459 38.0981C156.501 38.0981 155.203 38.5072 153.886 40.0122C152.543 41.5469 151.439 44.0173 151.439 47.1274C151.439 50.2379 152.543 52.7089 153.886 54.2437C155.203 55.7486 156.501 56.1577 157.459 56.1577C158.417 56.1576 159.715 55.7484 161.031 54.2437C162.374 52.7089 163.479 50.2379 163.479 47.1274C163.479 44.0173 162.374 41.5469 161.031 40.0122C159.715 38.5075 158.417 38.0983 157.459 38.0981Z" fill="white"/>
<path d="M204.115 5.03029C211.97 1.98989 228.706 -4.39149 244.046 4.67483C259.435 13.7706 269.894 36.1385 272.165 80.085C272.559 87.7053 272.104 97.2596 269.764 105.27C267.618 112.614 262.59 122.516 251.451 123.001C241.928 123.415 234.932 117.607 230.756 112.861C228.599 110.41 226.843 107.84 225.538 105.724C222.059 108.622 217.776 110.335 213.141 110.335C201.505 110.335 192.073 99.5541 192.072 86.2559C192.073 72.9576 201.505 62.1768 213.141 62.1768C224.777 62.1769 234.21 72.9577 234.21 86.2559C234.21 88.0193 234.042 89.738 233.727 91.3936C234.748 92.0524 235.623 92.9686 236.246 94.1104C237.132 95.7341 239.064 99.5216 242.053 102.919C245.17 106.461 248.122 108.081 250.798 107.965C251.329 107.942 253.434 107.499 255.319 101.049C257.009 95.2618 257.482 87.5624 257.136 80.8613C254.898 37.5538 244.67 22.5247 236.389 17.6299C228.059 12.7072 218.138 15.7398 209.549 19.0645C195.346 24.5623 188.183 24.3458 186.147 24.3457C184.111 24.3458 176.945 24.5623 162.742 19.0645C154.154 15.7398 144.232 12.707 135.903 17.6299C127.621 22.5248 117.393 37.554 115.156 80.8613C114.809 87.5623 115.282 95.2619 116.973 101.049C118.857 107.498 120.962 107.941 121.493 107.965C124.17 108.081 127.121 106.461 130.239 102.919C133.228 99.5218 135.158 95.7343 136.044 94.1104C138.034 90.4626 142.605 89.118 146.253 91.1074C149.901 93.0974 151.245 97.6683 149.255 101.316C148.549 102.611 145.838 107.972 141.535 112.861C137.359 117.607 130.363 123.415 120.84 123.001C109.701 122.516 104.673 112.614 102.528 105.27C100.188 97.2596 99.7324 87.7053 100.126 80.085C102.397 36.1386 112.856 13.7707 128.245 4.67483C143.586 -4.39158 160.321 1.98982 168.176 5.03029C180.271 9.71229 185.521 9.29746 186.145 9.2969C186.766 9.29722 192.017 9.71355 204.115 5.03029ZM213.141 77.2266C212.183 77.2266 210.885 77.635 209.569 79.1397C208.226 80.6744 207.121 83.1455 207.121 86.2559C207.121 89.3663 208.226 91.8374 209.569 93.3721C210.885 94.8767 212.183 95.2852 213.141 95.2852C214.098 95.2851 215.397 94.8769 216.714 93.3721C218.057 91.8374 219.16 89.3661 219.16 86.2559C219.16 83.1456 218.057 80.6744 216.714 79.1397C215.397 77.6348 214.098 77.2266 213.141 77.2266Z" fill="white"/>
</svg>
