<svg width="746" height="533" viewBox="0 0 746 533" fill="none" xmlns="http://www.w3.org/2000/svg">
<path d="M439.691 121.244C449.439 106.12 469.607 101.761 484.732 111.508C499.856 121.256 504.215 141.424 494.468 156.548L305.5 449.774C295.752 464.898 275.584 469.257 260.46 459.51C245.336 449.762 240.977 429.594 250.724 414.47L439.691 121.244Z" fill="url(#paint0_linear_209_1023)"/>
<path d="M248.789 99.7988C299.171 99.7988 340.014 146.477 340.014 204.057C340.014 261.637 299.171 308.315 248.789 308.315C198.406 308.315 157.563 261.637 157.563 204.057C157.563 146.477 198.406 99.7989 248.789 99.7988ZM248.789 164.96C244.642 164.96 239.021 166.729 233.319 173.245C227.505 179.89 222.724 190.589 222.724 204.057C222.724 217.525 227.505 228.224 233.319 234.869C239.021 241.385 244.643 243.154 248.789 243.154C252.935 243.154 258.557 241.385 264.259 234.869C270.072 228.224 274.853 217.525 274.853 204.057C274.853 190.589 270.072 179.89 264.259 173.245C258.557 166.729 252.935 164.96 248.789 164.96Z" fill="url(#paint1_linear_209_1023)"/>
<path d="M122.297 20.2417C188.719 -19.0154 261.182 8.61599 295.191 21.7808C347.576 42.0586 370.307 40.256 372.997 40.2544C375.686 40.2559 398.421 42.0592 450.808 21.7808C484.817 8.61613 557.279 -19.0152 623.702 20.2417C690.335 59.6256 735.621 156.476 745.454 346.76C747.159 379.756 745.187 421.122 735.055 455.804C725.765 487.604 703.997 530.48 655.767 532.579C614.531 534.371 584.241 509.226 566.158 488.677C556.821 478.067 549.216 466.944 543.567 457.782C528.505 470.33 509.952 477.735 489.885 477.735C439.503 477.735 398.659 431.057 398.659 373.477C398.659 315.897 439.503 269.219 489.885 269.219C540.268 269.22 581.111 315.897 581.111 373.477C581.111 381.114 580.392 388.558 579.028 395.728C583.446 398.581 587.235 402.545 589.931 407.487C593.766 414.518 602.129 430.918 615.074 445.628C628.571 460.966 641.348 467.978 652.936 467.474C655.234 467.374 664.349 465.461 672.509 437.528C679.829 412.471 681.881 379.135 680.381 350.121C670.691 162.603 626.405 97.5283 590.548 76.3345C554.481 55.0183 511.523 68.1497 474.334 82.5454C412.833 106.352 381.817 105.416 373.003 105.416C364.188 105.416 333.165 106.351 271.666 82.5454C234.476 68.1497 191.519 55.0179 155.451 76.3345C119.594 97.5283 75.3089 162.603 65.6187 350.121C64.1195 379.135 66.1704 412.471 73.4898 437.528C81.6502 465.461 90.7665 467.374 93.0641 467.474C104.652 467.978 117.43 460.966 130.926 445.628C143.871 430.918 152.233 414.518 156.068 407.487C164.685 391.692 184.472 385.871 200.268 394.486C216.064 403.102 221.883 422.89 213.268 438.686C210.213 444.286 198.474 467.503 179.841 488.677C161.758 509.226 131.468 534.372 90.232 532.579C42.0022 530.48 20.2344 487.604 10.9439 455.804C0.81243 421.122 -1.15845 379.756 0.54648 346.76C10.3793 156.476 55.6643 59.6256 122.297 20.2417ZM489.885 334.38C485.739 334.38 480.117 336.149 474.416 342.666C468.602 349.311 463.82 360.009 463.82 373.477C463.82 386.945 468.602 397.643 474.416 404.289C480.117 410.805 485.739 412.574 489.885 412.574C494.032 412.574 499.653 410.805 505.354 404.289C511.168 397.643 515.95 386.945 515.95 373.477C515.95 360.009 511.168 349.311 505.354 342.666C499.653 336.15 494.032 334.381 489.885 334.38Z" fill="url(#paint2_linear_209_1023)"/>
<defs>
<linearGradient id="paint0_linear_209_1023" x1="304.753" y1="105.601" x2="566.642" y2="257.886" gradientUnits="userSpaceOnUse">
<stop stop-color="#ABFEFF"/>
<stop offset="0.105769" stop-color="#57FDFF"/>
<stop offset="0.850476" stop-color="#5102BA"/>
</linearGradient>
<linearGradient id="paint1_linear_209_1023" x1="200.084" y1="99.3864" x2="366.164" y2="218.554" gradientUnits="userSpaceOnUse">
<stop stop-color="#ABFEFF"/>
<stop offset="0.105769" stop-color="#57FDFF"/>
<stop offset="0.850476" stop-color="#5102BA"/>
</linearGradient>
<linearGradient id="paint2_linear_209_1023" x1="173.856" y1="-1.05368" x2="617.452" y2="508.397" gradientUnits="userSpaceOnUse">
<stop stop-color="#ABFEFF"/>
<stop offset="0.105769" stop-color="#57FDFF"/>
<stop offset="0.850476" stop-color="#5102BA"/>
</linearGradient>
</defs>
</svg>
